# xmcd CD database file
#
# Track frame offsets:
#	150
#	44537
#	55087
#	76222
#	106667
#	121942
#	126418
#	148905
#	157800
#	170609
#	220392
#	233898
#	246497
#	255700
#	262970
#	276955
#
# Disc length: 3861 seconds
#
# Revision: 1
# Processed by: cddbd v1.5.2PL0 Copyright (c) Steve Scherf et al.
# Submitted via: CDex 1.82
#
DISCID=e90f1310
DTITLE=Daniel Peterson - The Mythic Belief
DYEAR=2003
DGENRE=Jazz
TTITLE0=Breaking Trends
TTITLE1=Choose Your Own Consequence
TTITLE2=Komuso
TTITLE3=Scratching My Own Back
TTITLE4=Be Relative
TTITLE5=Principles
TTITLE6=Light Dims and Drains Away
TTITLE7=Infinity
TTITLE8=Canopy
TTITLE9=His Patience Is Not Your Punishment
TTITLE10=Sweet Tide
TTITLE11=Narison
TTITLE12=Stealing mama's Hat
TTITLE13=KingFisher
TTITLE14=Freesea
TTITLE15=Undulations
EXTD=YEAR: 2003
EXTT0=
EXTT1=
EXTT2=
EXTT3=
EXTT4=
EXTT5=
EXTT6=
EXTT7=
EXTT8=
EXTT9=
EXTT10=
EXTT11=
EXTT12=
EXTT13=
EXTT14=
EXTT15=
PLAYORDER=
